# xmcd CD database file
#
# Track frame offsets:
#	150
#	21668
#	44906
#	58094
#	76735
#	90374
#	111284
#	130734
#	147119
#	163748
#	180005
#	204483
#	225336
#	240217
#
# Disc length: 3542 seconds
#
# Revision: 1
# Processed by: cddbd v1.5.2PL0 Copyright (c) Steve Scherf et al.
# Submitted via: CDex 1.51
#
DISCID=ac0dd40e
DTITLE=Various Artist - Closer - CD2
DYEAR=2005
DGENRE=Pop
TTITLE0=Nana Mouskouri - I Have A Dream
TTITLE1=James Cullum - What A Difference A Day Made
TTITLE2=Suzzanne Vega - Caramel
TTITLE3=Natalie Cole - I Wish You Love
TTITLE4=Stan Getz - What The World Needs Now Is Love
TTITLE5=Peter Cincotti - You Don't Know Me
TTITLE6=Everything But The Girl - I Don't Wanna Talk About It
TTITLE7=Sissel - Solitaire
TTITLE8=Miles Davis - Time After Time
TTITLE9=The Beautiful South - Dream A Little Dream
TTITLE10=Silje Nergaard - Bewitched, Bothered and Bewildered
TTITLE11=Rob Wasserman and Aaron Neville - Stardust
TTITLE12=David Sanborn - Isn't She Lovely
TTITLE13=Tori Amos - I'm Not In Love
EXTD=YEAR: 2005
EXTT0=
EXTT1=
EXTT2=
EXTT3=
EXTT4=
EXTT5=
EXTT6=
EXTT7=
EXTT8=
EXTT9=
EXTT10=
EXTT11=
EXTT12=
EXTT13=
PLAYORDER=
